<svg xmlns="http://www.w3.org/2000/svg" xmlns:xlink="http://www.w3.org/1999/xlink" width="1440" height="560" preserveAspectRatio="none"><g fill="none" mask="url(&quot;#a&quot;)"><path fill="rgba(255, 255, 255, 1)" d="M0 0h1440v560H0z"/><use xlink:href="#b" fill="rgba(243, 244, 246, 1)"/><use xlink:href="#b" fill="rgba(243, 244, 246, 1)" transform="translate(1035)"/></g><defs><g id="d"><path d="M12.84 7.87a.64.64 0 0 0-.89-.17c-.29.2-.37.6-.18.89a.64.64 0 0 0 .89.17.64.64 0 0 0 .18-.89zM8.4 10.68a.64.64 0 0 0-.17.89c.2.29.59.37.88.17a.64.64 0 0 0 .18-.89.64.64 0 0 0-.89-.17zm2.31-7.2a.64.64 0 0 0-1.06.71.64.64 0 0 0 .89.18.64.64 0 0 0 .17-.89z"/><path d="M15 4.07C13.46 1.79 10.32.84 8.14 1.68c-.49.18-1.66.82-1.66.81l-3.35.73a.49.49 0 0 0-.18.08.49.49 0 0 0-.13.68l.45.68-1.4.95c-1.1.74-1.39 2.23-.65 3.32l.53.79-1.54 1.04 3.62 5.37 4.27-2.88A6.079 6.079 0 0 0 15 4.07zm-8.69.33a.67.67 0 0 1 .19-.94.68.68 0 0 1 .94.19c.21.31.13.73-.18.94a.68.68 0 0 1-.95-.19zm5.77 6.92-.87-.17.02-.94c-.15-.08-.29-.17-.41-.29l-.78.35.17.24-.33.32.03.09c.02.08.03.16.03.24l.41.16-.08.4-.45-.01c-.05.1-.11.2-.2.29l.18.39-.34.23-.31-.32-.09.03a1.15 1.15 0 0 1-.25.03l-.15.41-.41-.08.01-.46a1.15 1.15 0 0 1-.28-.19l-.4.18-.23-.34.33-.32c-.01-.03-.03-.06-.03-.09a1.17 1.17 0 0 1-.03-.24l-.41-.16.08-.4.45.01a1.15 1.15 0 0 1 .2-.28l-.18-.4.34-.23.31.33c.03-.01.06-.02.1-.03.08-.02.16-.03.24-.04l.15-.4.41.07-.01.46a1.17 1.17 0 0 1 .28.19l.34-.15-.43-.65.68-.65-.03-.11a2.22 2.22 0 0 1-.06-.38l-.85-.32.17-.88.94.02a2.18 2.18 0 0 1 .29-.41l-.37-.83.61-.41-.32-.33c-.02.01-.04.02-.06.02a1.4 1.4 0 0 1-.25.04l-.21.56-.58-.12.02-.61a1.44 1.44 0 0 1-.26-.18l-.55.24-.32-.48.44-.43a.145.145 0 0 1-.02-.07 1.43 1.43 0 0 1-.03-.24l-.56-.22.11-.57.62.01a1.49 1.49 0 0 1 .18-.25l-.24-.55.48-.33.43.45c.02-.01.04-.01.06-.02.08-.02.17-.03.25-.04l.21-.56.58.11-.02.63a1.44 1.44 0 0 1 .27.17l.54-.24.32.49-.44.43c.01.02.02.04.02.06.02.08.03.17.03.24l.56.22-.11.57-.62-.01a1.4 1.4 0 0 1-.18.26l.25.54-.36.24.54.56.11-.03c.13-.03.26-.05.38-.06l.32-.85.88.17-.02.95a2.19 2.19 0 0 1 .41.28l.83-.37.5.74-.68.65a2.713 2.713 0 0 1 .09.49l.85.33-.17.87-.94-.02c-.08.15-.17.28-.29.41l.37.83-.74.5-.65-.68-.11.03c-.13.03-.26.05-.38.06l-.33.85z"/></g><g id="e"><path d="M1.63 11.95C-.74 8.42.19 3.62 3.72 1.24c3.53-2.38 8.33-1.45 10.71 2.08s1.45 8.33-2.08 10.71c-3.53 2.38-8.33 1.44-10.72-2.08zm1.59-1.07c1.79 2.65 5.41 3.36 8.06 1.57 2.65-1.79 3.35-5.41 1.57-8.07a5.809 5.809 0 0 0-9.63 6.5z"/><path d="M7.21 8.24a.57.57 0 0 1-.28-.49.58.58 0 0 1 .19-.44l3.71-2.51a.58.58 0 0 1 .65.96L8.6 7.71l2.82 1.68a.58.58 0 0 1 .21.8c-.16.28-.52.37-.8.2L7.21 8.24z"/></g><g id="b" fill="rgba(243, 244, 246, 1)"><use xlink:href="#c" transform="scale(2.3)"/><use xlink:href="#d" transform="matrix(2.3 0 0 2.3 0 103.5)"/><use xlink:href="#e" transform="matrix(2.3 0 0 2.3 0 207)"/><use xlink:href="#c" transform="matrix(2.3 0 0 2.3 0 310.5)"/><use xlink:href="#d" transform="matrix(2.3 0 0 2.3 0 414)"/><use xlink:href="#e" transform="matrix(2.3 0 0 2.3 0 517.5)"/><use xlink:href="#d" transform="translate(103.5) scale(2.3)"/><use xlink:href="#e" transform="matrix(2.3 0 0 2.3 103.5 103.5)"/><use xlink:href="#c" transform="matrix(2.3 0 0 2.3 103.5 207)"/><use xlink:href="#d" transform="matrix(2.3 0 0 2.3 103.5 310.5)"/><use xlink:href="#e" transform="matrix(2.3 0 0 2.3 103.5 414)"/><use xlink:href="#c" transform="matrix(2.3 0 0 2.3 103.5 517.5)"/><use xlink:href="#e" transform="translate(207) scale(2.3)"/><use xlink:href="#c" transform="matrix(2.3 0 0 2.3 207 103.5)"/><use xlink:href="#d" transform="matrix(2.3 0 0 2.3 207 207)"/><use xlink:href="#e" transform="matrix(2.3 0 0 2.3 207 310.5)"/><use xlink:href="#c" transform="matrix(2.3 0 0 2.3 207 414)"/><use xlink:href="#d" transform="matrix(2.3 0 0 2.3 207 517.5)"/><use xlink:href="#c" transform="translate(310.5) scale(2.3)"/><use xlink:href="#d" transform="matrix(2.3 0 0 2.3 310.5 103.5)"/><use xlink:href="#e" transform="matrix(2.3 0 0 2.3 310.5 207)"/><use xlink:href="#c" transform="matrix(2.3 0 0 2.3 310.5 310.5)"/><use xlink:href="#d" transform="matrix(2.3 0 0 2.3 310.5 414)"/><use xlink:href="#e" transform="matrix(2.3 0 0 2.3 310.5 517.5)"/><use xlink:href="#d" transform="translate(414) scale(2.3)"/><use xlink:href="#e" transform="matrix(2.3 0 0 2.3 414 103.5)"/><use xlink:href="#c" transform="matrix(2.3 0 0 2.3 414 207)"/><use xlink:href="#d" transform="matrix(2.3 0 0 2.3 414 310.5)"/><use xlink:href="#e" transform="matrix(2.3 0 0 2.3 414 414)"/><use xlink:href="#c" transform="matrix(2.3 0 0 2.3 414 517.5)"/><use xlink:href="#e" transform="translate(517.5) scale(2.3)"/><use xlink:href="#c" transform="matrix(2.3 0 0 2.3 517.5 103.5)"/><use xlink:href="#d" transform="matrix(2.3 0 0 2.3 517.5 207)"/><use xlink:href="#e" transform="matrix(2.3 0 0 2.3 517.5 310.5)"/><use xlink:href="#c" transform="matrix(2.3 0 0 2.3 517.5 414)"/><use xlink:href="#d" transform="matrix(2.3 0 0 2.3 517.5 517.5)"/><use xlink:href="#c" transform="translate(621) scale(2.3)"/><use xlink:href="#d" transform="matrix(2.3 0 0 2.3 621 103.5)"/><use xlink:href="#e" transform="matrix(2.3 0 0 2.3 621 207)"/><use xlink:href="#c" transform="matrix(2.3 0 0 2.3 621 310.5)"/><use xlink:href="#d" transform="matrix(2.3 0 0 2.3 621 414)"/><use xlink:href="#e" transform="matrix(2.3 0 0 2.3 621 517.5)"/><use xlink:href="#d" transform="translate(724.5) scale(2.3)"/><use xlink:href="#e" transform="matrix(2.3 0 0 2.3 724.5 103.5)"/><use xlink:href="#c" transform="matrix(2.3 0 0 2.3 724.5 207)"/><use xlink:href="#d" transform="matrix(2.3 0 0 2.3 724.5 310.5)"/><use xlink:href="#e" transform="matrix(2.3 0 0 2.3 724.5 414)"/><use xlink:href="#c" transform="matrix(2.3 0 0 2.3 724.5 517.5)"/><use xlink:href="#e" transform="translate(828) scale(2.3)"/><use xlink:href="#c" transform="matrix(2.3 0 0 2.3 828 103.5)"/><use xlink:href="#d" transform="matrix(2.3 0 0 2.3 828 207)"/><use xlink:href="#e" transform="matrix(2.3 0 0 2.3 828 310.5)"/><use xlink:href="#c" transform="matrix(2.3 0 0 2.3 828 414)"/><use xlink:href="#d" transform="matrix(2.3 0 0 2.3 828 517.5)"/><use xlink:href="#c" transform="translate(931.5) scale(2.3)"/><use xlink:href="#d" transform="matrix(2.3 0 0 2.3 931.5 103.5)"/><use xlink:href="#e" transform="matrix(2.3 0 0 2.3 931.5 207)"/><use xlink:href="#c" transform="matrix(2.3 0 0 2.3 931.5 310.5)"/><use xlink:href="#d" transform="matrix(2.3 0 0 2.3 931.5 414)"/><use xlink:href="#e" transform="matrix(2.3 0 0 2.3 931.5 517.5)"/></g><path id="c" d="M10.86 14.8c.16.24.52.34.78.2 0 0 .37-.18.78-.45s.71-.55.71-.55c.22-.2.26-.56.1-.8l-.85-1.27c-.16-.24-.18-.6-.04-.79s.7-.7.99-.64l1.5.29c.29.06.59-.13.67-.42l.34-1.76a.59.59 0 0 0-.47-.63l-1.49-.29c-.29-.06-.55-.3-.59-.54s0-.99.24-1.15l1.27-.86a.64.64 0 0 0 .21-.78s-.18-.37-.46-.78-.55-.71-.55-.71a.639.639 0 0 0-.8-.1l-1.27.85c-.24.16-.6.18-.79.04s-.7-.7-.65-.99l.3-1.5a.597.597 0 0 0-.42-.67L8.61.16a.59.59 0 0 0-.63.47l-.29 1.49c-.06.29-.3.55-.54.59s-.99 0-1.16-.24L5.14 1.2a.64.64 0 0 0-.78-.21s-.37.18-.78.46-.71.55-.71.55c-.22.2-.26.56-.1.8l.85 1.27c.16.24.18.6.04.8-.15.19-.7.7-.99.64l-1.49-.29c-.3-.06-.6.13-.68.41L.16 7.39c-.03.29.18.58.47.64l1.49.29c.29.06.55.3.59.53s0 .99-.24 1.16l-1.27.85c-.24.16-.34.52-.2.78 0 0 .18.37.45.78s.55.71.55.71c.2.22.56.26.8.1l1.27-.85c.24-.16.6-.18.8-.03.19.15.7.7.64.98l-.3 1.5c-.06.29.13.59.42.67l1.76.35c.29.03.58-.18.63-.48l.29-1.49c.06-.29.3-.55.54-.59.24-.03.99 0 1.16.24l.85 1.27zM5.6 9.62c-.89-1.32-.54-3.12.78-4.02 1.32-.89 3.12-.54 4.02.78s.54 3.13-.78 4.02-3.12.54-4.02-.78z"/><mask id="a"><path fill="#fff" d="M0 0h1440v560H0z"/></mask></defs></svg>